<svg id="Layer_1" data-name="Layer 1" xmlns="http://www.w3.org/2000/svg" viewBox="0 0 830.12 270.62"><title>bbpagetitle</title><path class="cls-1" d="M493.05,225.26c1.62-2.43,3.67-4,3.43-6.89,0-.5.45-1.05.71-1.57q10.49-21,21-41.91a36,36,0,0,1,4.65-7.36,5,5,0,0,1,4.79-2c1.87.22,3.81-.16,5.71-.08,5.11.24,6.9,3.89,4.26,8.25-5.86,9.67-12,19.33-16.09,29.8-5.14,13-12.56,24.91-17.71,37.89a7.59,7.59,0,0,1-6.51,5.1c-5.12.61-10.24,1.27-15.38,1.66-5,.38-6.32-.93-6.43-5.82-.09-3.61,0-7.22-.32-10.86a20.44,20.44,0,0,0-3.58,6.76,10.06,10.06,0,0,1-9.23,7.17c-4.31.41-8.59,1-12.9,1.43a11.49,11.49,0,0,1-3.45-.29c-2.19-.46-3.55-1.73-3.5-4.15,0-1.57,0-3.13,0-4.73-.53,0-.78,0-1,0-2.32.29-4.77,1.35-6.39-1.5-.29-.51-1.07-.77-1.66-1.08-4.34-2.29-6.47-5.63-5.16-10.65a8.42,8.42,0,0,0,.18-1.24c.17-2.19-.36-2.6-2.34-1.66-4.14,1.95-8.25,4-12.38,5.93a10.57,10.57,0,0,1-3.44,1.41c-4.39.36-6,3.56-7.57,6.91-.91,2-1.94,3.86-2.81,5.84a23.46,23.46,0,0,0-2.43,11.07c.19,2.93-1,3.68-3.89,2.79a21.93,21.93,0,0,1-7.42-4.5c-1.68-1.41-1.52-3.74-1.69-6-2.58,1.27-5.47,1.14-7.6,3.22-1,1-2.47.38-3.51-.28-8.82-5.61-19-7.38-28.78-10.3-1.78-.53-2.47-.15-2.94,1.63-.87,3.38-1.91,6.69-.72,10.23a7.21,7.21,0,0,1,.11,3c-.34,2.88-2.31,4.36-5.18,4A12.17,12.17,0,0,1,324.65,244a17.81,17.81,0,0,0-.18-3,39,39,0,0,1-11.1,15.07c-8,6.58-16.7,11.8-26.78,14.49-1.62.43-3.29,1.16-5,0-.93-.59-1.42.81-2.39.91-5.52.57-11.65-3.86-12.39-9.39a7.2,7.2,0,0,1,2.19-6.06,1.55,1.55,0,0,1,2.15-.38,9.25,9.25,0,0,0,7.28.36,66.84,66.84,0,0,0,20.46-10.15,26,26,0,0,0,10-15.94c.89-4.48-1.87-8-6.18-9.41-2.89-.94-5.05-.22-7.46,1a26.81,26.81,0,0,1-5.61,2,2.86,2.86,0,0,0-2.28,2.28c-1.16,4.33-2.4,8.64-3.54,13a15.83,15.83,0,0,0-.24,8.61,5.46,5.46,0,0,1-.07,3.2,3.06,3.06,0,0,1-5.1,1.44c-5.44-5.62-8.79-11.94-7.44-20.19,1-6.06,1.45-12.21,2.94-18.19,2.26-9.07,4.68-18.1,7-27.15a29.88,29.88,0,0,0,.91-4.38,23,23,0,0,1,6.31-13.53A20.27,20.27,0,0,0,290.3,166c3.09-4.75,7.69-6.38,13-5.64,7.29,1,14.37,2.89,19.95,8.22.84.8,2,1.56,2.33,2.56,2.79,7.31,6,14.5,1.16,22.38-3.41,5.51-6.4,11.28-10.67,16.21-1,1.15-.8,1.86.06,3,2.87,3.65,5.09,7.73,7.57,11.65,1.22,1.93,2.79,3.51,2.85,6.05.79-3.26,1.59-6.53,2.37-9.79,2.82-11.8,7-23.22,10-35,.48-1.88.88-3-1.85-3.41-3.83-.61-4.55-4.33-5.45-7.34-.85-2.83,1.07-4.6,3.44-5.92a24.82,24.82,0,0,1,10.33-3.45c9.56-.65,19.1-1,28.41,2.16,6.68,2.23,11.71,6.16,14.28,12.87a3.84,3.84,0,0,1,.47,1.66c-1,5.86.07,12.27-4.73,17.18-1,1.07-2.79,2.45-1.62,4.63.13.23-.59.92-.94,1.39a135.54,135.54,0,0,1-16,17.81c-2.12,2-2.13,2,.43,3.2,4.13,2,8.27,3.91,12.4,5.86,3.11,1.48,6,3.19,8.2,6.24,3-5.83,5.81-11.52,8.76-17.16,8.4-16,15.94-32.56,26.41-47.46a23.33,23.33,0,0,1,4.07-5c1.57-1.28,3.39-1.81,5.06-.59,2.28,1.65,4.92,2.73,7,4.69a23.49,23.49,0,0,0,4,2.48c.84-4.09,4.23-6.21,8.16-5.11A62.7,62.7,0,0,1,457,173c1.86.77,2.12,2.64,2.42,4.37.76,4.53.63,9.12.69,13.67.12,9.48-.08,19-.14,28.43,0,.81,0,1.62,0,2.59.42-.16.74-.17.81-.31,2-4,4.32-7.81,6.59-11.65a125.09,125.09,0,0,0,6.23-13c3.06-6.91,5.92-13.92,9.89-20.39,1.26-2.06,2.39-4.69,4.89-5,3.57-.48,7.32-1,10.84.29a4.19,4.19,0,0,1,2.14,6.19c-2.69,4.39-5,9-7.57,13.45a5.28,5.28,0,0,0-1,2.77c0,9.89,0,19.79-.06,29.68A10.23,10.23,0,0,0,493.05,225.26Zm-178.51-42.9c0-3.43-4.29-8.78-7.89-9.89-1.24-.38-3-1.36-3.9.19-1.59,2.67-4,4.93-4.45,8.23-.65,4.92-2.44,9.67-2.44,14.68,0,2.49-1.19,4.6-1.68,6.92-.27,1.32,0,2.15,1.67,1.6,2.6-.88,5.13-1.81,7.12-3.9,4.77-5,7.44-11.37,11.33-16.94A2.1,2.1,0,0,0,314.54,182.36Zm34.35,33.56c4.47-2.56,12.8-11.26,16.87-17.43a25,25,0,0,0,4-8.77c.57-2.87-.08-4.33-2.71-5.68a30.31,30.31,0,0,0-7.38-2.12c-2-.45-3,.14-3,2.22a7.54,7.54,0,0,1-1.82,5c-.82.93-1.84,2.73-1,3.54,1.69,1.61.64,3,.27,4.41C352.47,203.24,350.72,209.34,348.89,215.92Zm75.64-17.32H424l-7.11,12.76a45.54,45.54,0,0,0,7.63-2.36,1.46,1.46,0,0,0,1-1.77Q425,202.91,424.53,198.6Zm17.55,11.1v-32C439,188.42,441.28,199.1,442.08,209.7Z" transform="translate(-13.91 -0.95)"/><path class="cls-1" d="M590.84,46.52c-3.64-1.16-7-2.64-10.72-2.85-4.76-.28-7.64-2.76-8.69-7.45a11.77,11.77,0,0,0-1.09-3.79,10.86,10.86,0,0,0-5.49,6.77c-.86,3.87-3.51,6.7-4.7,10.27-1.86,5.56-5.18,10.38-7.7,15.61-5.67,11.75-11.2,23.55-15.73,35.8a12.91,12.91,0,0,0-1,7c.58,3.12-1.54,4.82-4.56,3.75a21,21,0,0,1-9.74-7.49c-1.54-2.06-1.42-4.57-.76-7,2-7.31,5.16-14.2,8-21.21,1.58-3.94,3.26-7.83,4.86-11.75.28-.68,1.1-1.93-.2-2-5.12-.17-6.18-4.4-7.89-7.76-2.8-5.49-5.29-11.15-7.76-16.8-.7-1.6-1.45-2.05-3.17-1.66-7.92,1.81-15.87,3.48-23.89,5.82l11.32,3.69c1.49.48,3.43.52,4,2.18.88,2.56,1.86,5.18,1.35,8-.17.91-.94,1.29-1.7,1.69a35,35,0,0,1-10.86,3.51c-4.51.71-9,1.85-13.49,2.47a7.12,7.12,0,0,0-5.45,4.13c-2.53,5.12-5.18,10.24-6,16a27.73,27.73,0,0,0,0,6.69c.17,1.85,1,2,2.48,1.39,7.39-2.81,14.73-5.74,21.54-9.8a18.27,18.27,0,0,1,7.44-2.7c3.19-.33,4.07,1.15,4.44,4.31.69,6-2.59,9.14-7.06,11.87s-9,5.56-13.95,6.51c-6.28,1.19-12.26,3.53-18.58,4.3-3.69.44-6.49-1.65-8.76-4.41-4.28-5.2-4.36-11.33-3.64-17.53a52.91,52.91,0,0,1,3.22-12.78,2.7,2.7,0,0,0-.22-2.76c-2.4-3.64-2.15-7.6-1.51-11.75s2.74-6.14,7-6.75a151.54,151.54,0,0,0,18.37-4,81.12,81.12,0,0,0-9.46-2.34c-7-.93-8.38-1.93-10.53-9.42A38.68,38.68,0,0,0,458,42.89c-1,4.69-2,5.71-6,5.59A7.09,7.09,0,0,1,445.48,42c-.13-1.49-.06-3-.07-4.49s0-3,0-4.48c-.82-.34-1.23.36-1.72.7a153.94,153.94,0,0,0-17.08,14.15c-1.38,1.29-1.27,2.08.29,3A78.55,78.55,0,0,1,439.34,60c6.27,5.42,11.14,11.68,11.76,20.37.12,1.65.35,3.08-1.21,4.63-1,1-.76,3.45-1,5.26A13,13,0,0,1,444.86,98c-6.5,6.55-14.75,9.68-23.57,11.48a26.89,26.89,0,0,1-7,.17,7.27,7.27,0,0,1-5.13-2.79c-3.31-3.94-4.42-8.65-4.74-13.64-.11-1.76,1.18-1.85,2.12-1.44,7.61,3.29,13.57-.6,19.39-4.5a29.36,29.36,0,0,0,8.26-7.88c2.09-3.15,1.79-5.07-1.36-7.13-5.07-3.33-10.6-5.94-15.36-9.75-.52-.42-1.09-.59-1.44.14-1.15,2.41-4.23,3.57-4.27,6.78,0,1.12-1.32,1.42-2.36,1.37-4.75-.23-9.24,1-13.69,2.41a62.67,62.67,0,0,1-14.18,2.63c-2.12.16-4.22.62-6.32,1s-3-.47-2.72-2.6A8.37,8.37,0,0,1,374,70.57a13.13,13.13,0,0,0,1.75-11.35,3.7,3.7,0,0,1,.18-2.65c4-8.61,5.54-17.88,7.06-27.14,1-6.14,1.74-12.34,1.08-18.59-.22-2,0-4.35-2.72-5.3-1.09-.38-.5-3.31.72-3.58,4.16-.92,8.35-1.57,12.57-.3,5.7,1.72,9,8.2,7.68,15C400,28.89,396.59,40.88,393.81,53c-.44,2-.44,2.67,2,2.3,5.28-.81,10.6-.23,16.51.28C409.07,52.4,408.36,49,408.7,45c.52-6.14,3.82-10.64,8.38-14.17a121.31,121.31,0,0,1,25.26-15,18.17,18.17,0,0,1,3.76-1.29c2.17-.42,4.3-.54,5.72-2.74.71-1.09,2.32-1.28,3.68-1.12a46.59,46.59,0,0,1,5.66.88c1.89.46,2.77,2.06,3.24,3.8a15.33,15.33,0,0,1-.59,9.53c-.19.5-.76,1.09-.17,1.55.3.22.95.08,1.4,0,14.4-3.35,29-4.65,43.77-5.22,1.58-.06,1.77-.6,1.42-2-1.1-4.34,1-7.34,5.43-8,.66-.1,1.31-.24,2-.39,3.41-.81,6,.05,7.7,3,2.61,4.6,5.52,9.08,6.61,14.39a5.56,5.56,0,0,0,1.22,2.13c1.33,1.82,2.87,3.69,3.13,5.89.47,4.07,3.78,6.5,5,10.58,4.31-7.67,8.29-14.84,12.37-22A111,111,0,0,1,562.5,11a29.74,29.74,0,0,1,2.67-2.95,4,4,0,0,1,4.8-.79A52,52,0,0,0,576.65,10c1.9.55,2.36,2.18,1.79,4a84.28,84.28,0,0,1-4,9.38c-.49,1.12-1,2.21-1.78,3.74a126.71,126.71,0,0,1,16.92-3.35C601,22.37,612.5,21,624.1,21.23a13.13,13.13,0,0,1,9.65,4,6.11,6.11,0,0,1,1.45,6.64c-.83,2.56-2.76,3.07-5,3.37-9.56,1.33-18.86,3.95-28.3,5.89-.31.07-.6.23-1.55.6,4.5,1.44,8.43,2.75,12.39,4,3.18,1,6.11,7.25,4.76,10.33a3.13,3.13,0,0,1-1.65,1.43A34.38,34.38,0,0,1,604.77,61c-4.11.63-8.15,1.67-12.26,2.26-3.82.54-5.87,2.83-7.32,6.11-2.08,4.71-4.41,9.3-5.14,14.5a25.32,25.32,0,0,0,.06,6.45c.17,1.54.72,2,2.25,1.45,7.38-2.82,14.73-5.73,21.55-9.77a19.32,19.32,0,0,1,7.42-2.8c3.32-.42,4.29,1,4.65,4.3.66,5.83-2.44,9-6.85,11.73S600,100.85,595,101.83c-6.26,1.2-12.25,3.45-18.56,4.33-3.83.53-8.39-2.75-10.67-7.36-2.81-5.69-2.29-11.62-1.24-17.57a55.88,55.88,0,0,1,2.73-9.82,2.71,2.71,0,0,0-.21-2.78c-2.4-3.56-2.17-7.44-1.55-11.5.65-4.28,2.65-6.38,7.08-7C578.69,49.29,584.75,47.76,590.84,46.52Z" transform="translate(-13.91 -0.95)"/><path class="cls-1" d="M324.1,81.78c-4.5,5.09-9,10.14-13.49,15.27a28,28,0,0,1-10.55,7.76,5.54,5.54,0,0,1-5.87-.57,24.89,24.89,0,0,0-4.85-2.55,11.07,11.07,0,0,1-6.85-8.63c-1,2.07-1.87,3.92-2.88,5.67-4.53,7.83-11.57,13-19.14,17.44-5.09,3-10.33,5.93-16.23,6.87-4,.65-8.16,1.47-12.27.06a10.34,10.34,0,0,1-7.34-8.64,7,7,0,0,1,2.51-6.16,1.38,1.38,0,0,1,1.8-.13,10,10,0,0,0,7.75.24,74.62,74.62,0,0,0,18.81-9.08c5.47-3.64,8.89-8.92,10.82-15.11,1.79-5.76-.65-9.48-6.49-11.26a6.5,6.5,0,0,0-5.63.59,31.18,31.18,0,0,1-7,2.65,2.58,2.58,0,0,0-2,2c-1.48,5.27-3.16,10.48-4.14,15.89a11.5,11.5,0,0,0,.08,4.92,7.94,7.94,0,0,1,.1,4.19,3,3,0,0,1-5.09,1.45c-4.73-5.11-8.41-10.63-7.55-18.19.79-6.85,1.48-13.71,3.15-20.41,2.27-9.14,4.69-18.25,7-27.38a3.12,3.12,0,0,0,.21-.72c.52-7.94,4.31-14.19,9.49-20,3-3.37,6.39-5.4,10.55-5.11,8.41.59,16.4,2.73,22.68,9a8,8,0,0,1,2.71,5.15A9.64,9.64,0,0,0,286.06,31c2.4,4,1.29,8.11-.27,12a71.92,71.92,0,0,1-11.54,18.86c-1.21,1.45-1.06,2.29,0,3.76,2.59,3.53,5.26,7.07,7,11.11.61,1.44,2.54,1.43,2.58,3.17a6.35,6.35,0,0,0,1.38-3.19,327,327,0,0,1,8.42-33,15.64,15.64,0,0,1,2.17-4.46,8.64,8.64,0,0,1,13-1.41c1.14,1.05,1.33,2.63,1.44,4.14a42.78,42.78,0,0,1-1.8,14.26C305.83,65.87,303,75.51,301,85.35a2,2,0,0,0,0,1.57,14,14,0,0,0,4.15-4.16c7.19-9.5,12.86-20,19.25-30,4.46-7,7.3-14.7,10.75-22.15,2.69-5.8,4.4-6.56,10.62-5.15a17.05,17.05,0,0,0,5.47.68c1.58-.13,3.47,4.52,3.07,6.5q-2.13,10.49-4.31,21c-.3,1.46-.53,2.93-.89,4.38-.23,1-.07,2.25-1.66,2.38-.27,0-.6.76-.7,1.21-2.45,11.28-6.31,22.21-8.32,33.59a26.41,26.41,0,0,0,.22,11.6c.81,3-.12,4.15-3.27,4.2-6.48.09-10.5-3.93-11.23-11.09A96.84,96.84,0,0,1,324.1,81.78ZM272.31,34.44c0-4-6.14-10.07-10.1-10a1.81,1.81,0,0,0-1.73.8c-1.12,2.41-3.26,4.21-4,6.84-2.13,7.56-2.07,15.55-4.46,23.07-.5,1.55.28,1.79,1.76,1.39A16.47,16.47,0,0,0,263,50.21c3.26-4.42,5.75-9.33,8.79-13.89A3,3,0,0,0,272.31,34.44Z" transform="translate(-13.91 -0.95)"/><path class="cls-1" d="M557.39,170.19c-.46,11.2-3.32,21.95-6.24,32.68-2.08,7.68-4.26,15.34-6.47,23-.42,1.49-.39,1.92,1.38,1.46,10.85-2.85,21.94-4.64,32.92-6.91a15.54,15.54,0,0,1,6.44.13c3.45.74,5,3.59,3.13,6.56-3.14,5-6.46,9.55-13.25,10.65A136.86,136.86,0,0,0,544.78,246a3.5,3.5,0,0,0-2.43,2.72c-1,4.22-4.32,5.48-7.89,2.9a3.82,3.82,0,0,0-4.34-.34,14,14,0,0,0-6.6,6.2c-.61,1.08-1.23,2.36-2.78,2-1.38-.29-1.57-1.62-1.82-2.73a28.8,28.8,0,0,1-.46-9.92,9.66,9.66,0,0,1,6.74-8.21c1-.37,1.78-.64,1.75-2a101.75,101.75,0,0,1,3.41-27.18c2.64-10.46,6.59-20.54,9.1-31a91.09,91.09,0,0,0,1.83-14.06,4.61,4.61,0,0,0-1.55-3.75c-1.47-1.54-1.23-2.84.73-3.7a15.94,15.94,0,0,1,9.22-1.46c3.36.59,5.41,2.75,6.53,5.86A24.32,24.32,0,0,1,557.39,170.19Z" transform="translate(-13.91 -0.95)"/><path class="cls-1" d="M342.46,102.68c-.58-5.36,1.51-9.76,7.53-11.78.73-.24,1.25-.8,1-1.49-1.69-4.45.73-8.6.95-12.91.66-12.49,5.37-24.06,9-35.88,2.32-7.65,4.18-15.37,4.39-23.42A5.09,5.09,0,0,0,364,13.36c-1.76-2-1.39-3.36,1.14-4.25a20.06,20.06,0,0,1,6.58-1.26q6.69,0,8.77,6.71c1.63,5.31,1.06,10.7.27,16-2.18,14.83-6.9,29.05-10.86,43.44-.4,1.44-.82,2.87-1.22,4.31-.35,1.26-.21,1.87,1.4,1.45,10.43-2.73,21.11-4.31,31.64-6.65a19.73,19.73,0,0,1,6.94-.23c4.23.58,5.8,3.81,3.55,7.38-1.41,2.22-3.57,3.86-4.45,6.54-.46,1.39-2.36,1.76-3.8,2.1-6.23,1.47-12.48,2.86-18.72,4.29a105.15,105.15,0,0,0-16.83,5.43,2.73,2.73,0,0,0-1.93,2.21c-1,4.51-4.44,5.83-8.15,3.12a3.37,3.37,0,0,0-3.65-.42,13.49,13.49,0,0,0-7,6.12,6.92,6.92,0,0,1-1.27,1.81c-1.36,1.18-2.64.79-3.23-1C342.46,108.17,342.48,105.75,342.46,102.68Z" transform="translate(-13.91 -0.95)"/><path class="cls-2" d="M442.08,177.65v32" transform="translate(-13.91 -0.95)"/><path class="cls-3" d="M34.87,134.26A87.37,87.37,0,0,1,50.09,84.6a4.4,4.4,0,0,1,3.19-2.09c5.61-1.08,9.9.45,13.44,5.06,2.3,3,2.62,2.78.45,5.74a66.8,66.8,0,0,0-12.81,32.17c-2.74,23.22,4.38,43.07,21,59.38a65.49,65.49,0,0,0,38.06,18.63c24,3.16,44.68-4.07,61.4-21.68a66.29,66.29,0,0,0,17.43-34.95c3.55-20.28-.93-38.7-13.36-55a66.93,66.93,0,0,0-40.44-25.62c-21-4.42-40.09,0-57.26,12.77-.89.66-1.39.57-2-.21-.47-.58-1.05-1.09-1.58-1.63-5.75-5.72-5.73-5.72-5.39-13.92a2.3,2.3,0,0,1,1.13-2,89.74,89.74,0,0,1,34.18-14.1A88.86,88.86,0,0,1,210.28,115.3a89.12,89.12,0,0,1-15.15,71.53c-13.41,18.2-31.24,29.92-53.31,34.41-26.16,5.33-50.4.07-71.79-16.1-17.79-13.45-29-31.31-33.47-53.27A79.44,79.44,0,0,1,34.87,134.26Z" transform="translate(-13.91 -0.95)"/><path class="cls-3" d="M82.88,103.68c4.23,4.3,8.3,8.51,12.48,12.62,1,1,.71,1.61.19,2.62-6.09,12-5.58,23.75,2.43,34.62,7.26,9.86,17.51,14.17,29.58,12.56,13.8-1.83,23.08-9.91,26.85-23.29a31.92,31.92,0,0,0-26-40.11,31.08,31.08,0,0,0-19.88,3.5c-.89.48-1.41.58-2.22-.25-4.12-4.25-8.34-8.42-12.52-12.62,15.86-12.71,44.3-14.67,64.16,3.42s22.18,49.67,4.86,70.25a51,51,0,0,1-69.92,8.07C71.14,158.66,65.48,127.47,82.88,103.68Z" transform="translate(-13.91 -0.95)"/><path class="cls-4" d="M13.91,51.66c6.72.33,13-.42,19.21-.34,1.16,0,2.15-.07,2.79-1.19a2.42,2.42,0,0,1,.73-.73c4-2.66,4.91-6.43,4.57-11s-.07-9.16-.07-13.75l.73-.12L62.24,45c1.9,1.91,3.77,3.84,5.72,5.7a3,3,0,0,1,1,2.52c-.22,6-.31,12-.51,18a3.92,3.92,0,0,0,1.3,3.22q27.48,27.38,54.88,54.83c1.29,1.28,2.52,2.58,1.94,4.64-1,3.39-4.46,4.24-7.08,1.65C114,130,108.46,124.5,103,119q-19.53-19.53-39-39.06a3.22,3.22,0,0,0-2.68-1.13c-6.13.28-12.27.42-18.4.61A2.16,2.16,0,0,1,41,78.86C32.1,69.9,23.2,61,13.91,51.66Z" transform="translate(-13.91 -0.95)"/><path class="cls-4" d="M121.78,121.41c6.16-.62,11.45,2.36,13.75,7.57a12.87,12.87,0,0,1-3.34,15.31A13.24,13.24,0,0,1,117.26,146a13,13,0,0,1-6.41-14.4c2.31,2.41,4.3,4.75,6.55,6.79a7.47,7.47,0,0,0,12.42-3.18,7.3,7.3,0,0,0-2-7.72C125.88,125.47,123.91,123.54,121.78,121.41Z" transform="translate(-13.91 -0.95)"/><path class="cls-3" d="M823.08,132.51a87.29,87.29,0,0,1-15.22,49.66,4.4,4.4,0,0,1-3.19,2.09c-5.61,1.08-9.9-.45-13.43-5.06-2.31-3-2.63-2.78-.46-5.74a66.8,66.8,0,0,0,12.81-32.17c2.75-23.22-4.38-43.07-21-59.38a65.49,65.49,0,0,0-38-18.63c-24-3.16-44.69,4.07-61.41,21.68a66.36,66.36,0,0,0-17.43,35c-3.55,20.28.94,38.7,13.36,55a66.87,66.87,0,0,0,40.44,25.61c21,4.43,40.09.05,57.26-12.76.89-.67,1.39-.57,2,.21a22.08,22.08,0,0,0,1.59,1.62c5.74,5.73,5.72,5.73,5.38,13.93a2.3,2.3,0,0,1-1.13,2,89.56,89.56,0,0,1-34.18,14.09,88,88,0,0,1-69-16,87.82,87.82,0,0,1-33.8-52.14,89.12,89.12,0,0,1,15.15-71.53c13.41-18.2,31.24-29.92,53.31-34.41,26.16-5.33,50.4-.07,71.79,16.1,17.79,13.45,29,31.31,33.47,53.27A79.44,79.44,0,0,1,823.08,132.51Z" transform="translate(-13.91 -0.95)"/><path class="cls-3" d="M775.07,163.09c-4.23-4.3-8.3-8.51-12.47-12.62-1-1-.71-1.61-.2-2.62,6.09-12,5.58-23.75-2.43-34.62-7.26-9.86-17.51-14.17-29.57-12.56-13.81,1.83-23.09,9.91-26.86,23.29a31.92,31.92,0,0,0,26,40.11,31.07,31.07,0,0,0,19.88-3.5c.89-.48,1.41-.58,2.22.25,4.13,4.25,8.34,8.42,12.53,12.62C748.33,186.15,719.9,188.11,700,170s-22.18-49.67-4.86-70.25a51,51,0,0,1,69.92-8.07C786.81,108.11,792.47,139.3,775.07,163.09Z" transform="translate(-13.91 -0.95)"/><path class="cls-4" d="M844,215.11c-6.72-.33-12.95.42-19.21.34-1.16,0-2.15.07-2.79,1.19a2.31,2.31,0,0,1-.73.73c-4,2.66-4.91,6.43-4.57,11s.07,9.16.07,13.75l-.73.12L795.71,221.8c-1.9-1.9-3.77-3.83-5.71-5.69a3,3,0,0,1-1-2.52c.22-6,.31-12,.51-18a3.92,3.92,0,0,0-1.3-3.22Q760.72,165,733.32,137.55c-1.29-1.28-2.52-2.58-1.93-4.64,1-3.39,4.45-4.24,7.07-1.65,5.54,5.48,11,11,16.54,16.51q19.51,19.53,39,39.06a3.19,3.19,0,0,0,2.68,1.12c6.13-.27,12.27-.41,18.4-.6a2.19,2.19,0,0,1,1.87.55C825.85,196.87,834.76,205.79,844,215.11Z" transform="translate(-13.91 -0.95)"/><path class="cls-4" d="M736.17,145.36c-6.16.62-11.45-2.36-13.75-7.58a12.86,12.86,0,0,1,3.34-15.3,13.26,13.26,0,0,1,14.94-1.66,13,13,0,0,1,6.4,14.4c-2.31-2.41-4.3-4.75-6.55-6.79a7.47,7.47,0,0,0-12.42,3.18,7.32,7.32,0,0,0,2,7.72C732.08,141.3,734,143.23,736.17,145.36Z" transform="translate(-13.91 -0.95)"/></svg>